<svg id="Layer_1" data-name="Layer 1" xmlns="http://www.w3.org/2000/svg" viewBox="0 0 720 400"><defs><style>.cls-1{fill:#153e49;}.cls-2{fill:#ffcc01;}.cls-3{fill:#ffdb53;}.cls-4{fill:#fcbd11;}.cls-5{fill:#5d7a7f;}.cls-6{opacity:0.18;}.cls-7{fill:#f2f2f2;opacity:0.2;}.cls-8{opacity:0.1;}.cls-9{fill:#fff;opacity:0.61;}.cls-10{fill:#ba656d;}</style></defs><title>Artboard 1</title><path class="cls-1" d="M54.24,353.5q-12.81,0-21.32-5.49A34.61,34.61,0,0,1,20,332.82a62.87,62.87,0,0,1-5.13-22.51l18.3-4.94a82.61,82.61,0,0,0,2.47,15.19,27.18,27.18,0,0,0,6.32,12q4.38,4.67,12.26,4.66,8,0,12.17-4.48t4.11-12.9q0-10.06-4.57-16.19a85.46,85.46,0,0,0-11.53-12.36L29.53,269.33a41.77,41.77,0,0,1-10.79-14q-3.48-7.59-3.48-18.76,0-16.29,9.33-25.25t25.44-9a47.82,47.82,0,0,1,15.46,2.29,27.11,27.11,0,0,1,11.16,7.05,34.55,34.55,0,0,1,7.14,12,67.67,67.67,0,0,1,3.57,16.93l-17.57,4.75a73,73,0,0,0-2.2-13.44A20,20,0,0,0,61.83,222q-4.11-3.75-11.8-3.75t-12,4.12q-4.3,4.11-4.3,12.17A24,24,0,0,0,36,245.72a32.53,32.53,0,0,0,7.41,9l25.07,22a78.34,78.34,0,0,1,14.82,17.47q6.4,10.15,6.41,24.06,0,11-4.58,18.94a30.83,30.83,0,0,1-12.53,12.17A38.73,38.73,0,0,1,54.24,353.5Z"/><path class="cls-1" d="M105.84,351.85V203.63h20.67v69.9l34-69.9h19.21L150.49,269l34,82.89H164.39L136,282.32l-9.52,17.2v52.33Z"/><path class="cls-1" d="M197.51,351.85V203.63h20.31V351.85Z"/><path class="cls-1" d="M241.79,351.85V203.63h36.78q13.37,0,21.32,4.85a28.1,28.1,0,0,1,11.62,14q3.66,9.15,3.66,22.14,0,11.72-4.12,20.31a29.78,29.78,0,0,1-12.17,13.27q-8.06,4.67-20.12,4.67H262.47v69ZM262.47,268H272c6,0,10.68-.66,14.09-2a12.77,12.77,0,0,0,7.32-7q2.21-5,2.2-14.18,0-10.62-1.55-16.29a11.43,11.43,0,0,0-6.5-7.87q-4.95-2.19-15.37-2.19h-9.7Z"/><path class="cls-1" d="M329.63,351.85V203.63h36.78q13.35,0,21.31,4.85a28.1,28.1,0,0,1,11.62,14q3.66,9.15,3.66,22.14,0,11.72-4.12,20.31a29.81,29.81,0,0,1-12.16,13.27q-8.06,4.67-20.13,4.67H350.3v69ZM350.3,268h9.52c6,0,10.67-.66,14.09-2a12.83,12.83,0,0,0,7.32-7q2.19-5,2.19-14.18,0-10.62-1.55-16.29a11.4,11.4,0,0,0-6.5-7.87q-4.94-2.19-15.37-2.19h-9.7Z"/><path class="cls-1" d="M417.46,351.85V203.63h57.46V219H438.13v49H468v14.64H438.13V337h37.15v14.82Z"/><path class="cls-1" d="M491.93,351.85V203.63h32.21q16.47,0,26.07,5a28.86,28.86,0,0,1,13.73,15.09q4.11,10.06,4.11,25.07v54.53q0,15.74-4.11,26.53a31.66,31.66,0,0,1-13.36,16.38q-9.24,5.58-24.79,5.58ZM512.61,337h11.71q11.34,0,16.1-4.39t5.77-12.81a174.87,174.87,0,0,0,1-20.31V251.39a95.91,95.91,0,0,0-1.46-18.66q-1.47-7.14-6.4-10.43T523.77,219H512.61Z"/><path class="cls-1" d="M589.46,351.85V203.63h20.31V351.85Z"/><path class="cls-1" d="M625.69,351.85l31.48-148.22h19.94l31.66,148.22H689.19l-6.77-37.33h-30.2l-7.13,37.33ZM655,299.7h24.7l-12.44-66.79Z"/><path class="cls-2" d="M600.74,54.74,585.55,85.5a1.7,1.7,0,0,1-1.29.94l-34,4.93a1.72,1.72,0,0,0-.95,2.93l24.57,23.94a1.72,1.72,0,0,1,.49,1.52l-5.8,33.81a1.72,1.72,0,0,0,2.49,1.81l30.37-16a1.66,1.66,0,0,1,1.59,0l30.37,16a1.72,1.72,0,0,0,2.49-1.81l-5.8-33.81a1.72,1.72,0,0,1,.49-1.52L655.19,94.3a1.72,1.72,0,0,0-1-2.93l-34-4.93a1.72,1.72,0,0,1-1.3-.94L603.81,54.74A1.71,1.71,0,0,0,600.74,54.74Z"/><path class="cls-3" d="M602.27,61.84,615.8,88.05a4.55,4.55,0,0,0,3.62,2.43l29.37,2.68-31,1.45a4.51,4.51,0,0,1-4.46-3Z"/><path class="cls-4" d="M635.26,149.68l.67,3.89a1.72,1.72,0,0,1-2.49,1.81l-30.37-16a1.66,1.66,0,0,0-1.59,0l-30.37,16a1.72,1.72,0,0,1-2.49-1.81l5.8-33.81a1.72,1.72,0,0,0-.49-1.52L549.36,94.3a1.72,1.72,0,0,1,.95-2.93l11.37-1.65C580.08,122.73,608.24,140.1,635.26,149.68Z"/><polygon class="cls-5" points="610.09 273 589.62 273.22 589.38 188.86 609.85 188.64 610.09 273"/><path class="cls-6" d="M589.38,190.12,610,226.78l-.11-36.87S598.41,191.18,589.38,190.12Z"/><ellipse class="cls-7" cx="602.03" cy="108.02" rx="80.02" ry="79.32" transform="translate(35.03 337.41) rotate(-32.2)"/><path class="cls-8" d="M564.93,166.65a106,106,0,0,1-26-35.35c-5.94-12.92-10.35-28-9.63-42.35a60.52,60.52,0,0,1,3.33-17.57,79,79,0,0,0,63.93,114.83C585,181.9,574.12,174.8,564.93,166.65Z"/><path class="cls-1" d="M603,353.35l-8.82.1a10.45,10.45,0,0,1-10.59-10.4l-.24-86.48a1.75,1.75,0,0,1,1.73-1.75l26.46-.28a1.71,1.71,0,0,1,1.74,1.71l.25,86.48A10.64,10.64,0,0,1,603,353.35Z"/><polygon class="cls-2" points="613.98 271.15 584.05 271.47 584.04 267.89 613.97 267.56 613.98 271.15"/><polygon class="cls-2" points="613.82 279.75 583.89 280.07 583.88 276.49 613.81 276.17 613.82 279.75"/><path class="cls-1" d="M602.27,193.27a84.71,84.71,0,0,1-85.82-84.33c-.13-47,38.15-85.67,85.34-86.17a84.7,84.7,0,0,1,85.82,84.33C687.74,154.11,649.46,192.76,602.27,193.27Zm-.46-162.73c-42.89.46-77.68,35.59-77.56,78.31a77,77,0,0,0,78,76.65c42.88-.46,77.68-35.59,77.56-78.31A77,77,0,0,0,601.81,30.54Z"/><path class="cls-9" d="M664.73,78.78c-3.59-11.13-11.55-20.81-21.2-27.33-8.33-5.62-19.62-9.09-29.56-5.91-1.51.48-2,3-.14,3.36,8.77,1.82,17,4.37,24.45,9.51,8.46,5.88,13.44,14.59,18.33,23.36C658.92,85.9,666.28,83.6,664.73,78.78Z"/><path class="cls-10" d="M534.94,149.75c-23-36.59-11.75-85.28,25.17-108.52s85.7-12.39,108.74,24.2S680.6,150.71,643.68,174,558,186.35,534.94,149.75ZM667.58,66.24C645,30.34,597.12,19.68,560.9,42.49S513.61,113.05,536.21,149s70.46,46.55,106.68,23.75S690.18,102.13,667.58,66.24Z"/></svg>